<?xml version="1.0" encoding="UTF-8" standalone="no"?>
<!DOCTYPE svg PUBLIC "-//W3C//DTD SVG 1.1//EN"
  "http://www.w3.org/Graphics/SVG/1.1/DTD/svg11.dtd">
<svg xmlns="http://www.w3.org/2000/svg"
     xmlns:xlink="http://www.w3.org/1999/xlink"
     width="650" height="603"
     viewBox="0 0 650 603" version="1.1" >
  <title>Greenhouse Gas Emissions by Sector (2000)</title>
  <desc>Pie Charts showing above</desc>

  <defs>
  </defs>
  <g  transform="matrix(0.9468, 0, 0,1.1462, 20, -41)" >
    <path
       style="fill:#004600;fill-opacity:1;fill-rule:nonzero;stroke:none"
       
       d="m 470.71429,227.28572 a 147.85715,122.14286 0 1 1 -295.71429,0 147.85715,122.14286 0 1 1 295.71429,0 z"
       />
    <path
       d="m 470.71239,227.90573 a 147.85715,122.14286 0 0 1 -3.41359,25.48154 L 322.85715,227.28572 z"
       style="fill:#00008f;fill-opacity:1;fill-rule:nonzero;stroke:#000000;stroke-opacity:1;stroke-width:0.4799513;stroke-miterlimit:4;stroke-dasharray:none"
       />
      <path
         d="m 467.14538,253.96005 a 147.85715,122.14286 0 0 1 -47.24359,65.47816 l -97.04464,-92.15249 z"
         style="fill:#00700d;fill-opacity:1;fill-rule:nonzero;stroke:#000000;stroke-opacity:1;stroke-width:0.4799513;stroke-miterlimit:4;stroke-dasharray:none"
      />
      <path
         d="m 420.82411,318.76981 a 147.85715,122.14286 0 0 1 -87.46282,30.35015 L 322.85715,227.28572 z"
         style="fill:#00afff;fill-opacity:1;fill-rule:nonzero;stroke:#000000;stroke-opacity:1;stroke-width:0.4799513;stroke-miterlimit:4;stroke-dasharray:none"
      />
      <path
         d="m 333.54188,349.10924 a 147.85715,122.14286 0 0 1 -98.59031,-23.61173 l 87.90558,-98.21179 z"
         style="fill:#e8a3cb;fill-opacity:1;fill-rule:nonzero;stroke:#000000;stroke-opacity:1;stroke-width:0.4799513;stroke-miterlimit:4;stroke-dasharray:none"
      />
      <path
         d="M 235.18641,325.64066 A 147.85715,122.14286 0 0 1 176.51059,244.7007 l 146.34656,-17.41498 z"
         style="fill:#81e83f;fill-opacity:1;fill-rule:nonzero;stroke:#000000;stroke-opacity:1;stroke-width:0.4799513;stroke-miterlimit:4;stroke-dasharray:none"
      />
      <path
         d="m 176.61045,245.26404 a 147.85715,122.14286 0 0 1 36.48481,-99.81542 l 109.76189,81.8371 z"
         style="fill:#ffaf00;fill-opacity:1;fill-rule:nonzero;stroke:#000000;stroke-opacity:1;stroke-width:0.4799513;stroke-miterlimit:4;stroke-dasharray:none"
      />
      <path
         d="M 213.04335,145.49616 A 147.85715,122.14286 0 0 1 356.6238,108.37066 L 322.85715,227.28572 z"
         style="fill:#b70095;fill-opacity:1;fill-rule:nonzero;stroke:#000000;stroke-opacity:1;stroke-width:0.4799513;stroke-miterlimit:4;stroke-dasharray:none"
      />
      <path
         d="m 356.40801,108.32898 a 147.85715,122.14286 0 0 1 114.30628,118.95773 l -147.85714,-9.9e-4 z"
         style="fill:#ea000c;fill-opacity:1;fill-rule:nonzero;stroke:#000000;stroke-opacity:1;stroke-width:0.4799513;stroke-miterlimit:4;stroke-dasharray:none"
      />
    </g>
    <g transform="matrix(0.360,0, 0,0.435, 28, 383)" 
         style="stroke:#000;stroke-width:0.48;stroke-miterlimit:4" >
      <path fill="#e8a3cb"
         d="m 470.71,227.59 c -0.06,21.42 -6.95,42.46 -19.97,60.99 l -127.88,-61.30 z" />
      <path fill="#00700d"
         d="m 450.46,288.98 c -14.43,20.36 -35.69,36.84 -61.22,47.44 L 322.85,227.28 z" />
      <path fill="#00afff"
        d="m 390.05,336.08 c -36.17,15.24 -78.34,17.525 -116.62,6.31 l 49.43,-115.11 z" />
      <path fill="#ffaf00"
         d="M 273.03,342.28 C 215.62,325.31 176.72,280.97 175.05,230.62 l 147.80,-3.33 z" />
      <path fill="#b70095"
         d="m 175.03,229.98 c -1.49,-55.81 43.01,-105.36 108.11,-120.35 l 39.70,117.65 z" />
      <path fill="#ea000c"
         d="m 283.06,109.64 c 78.64,-18.15 160.21,19.79 182.19,84.76 3.65,10.79 5.48,21.94 5.45,33.15 l -147.85,-0.27 z"
         />
    </g>
    <g transform="matrix(0.360, 0, 0, 0.435, 209, 382)"  fill="#dddd00"
         style="stroke:#000;stroke-width:0.48;stroke-miterlimit:4" >
      <path fill="#00008f"
         d="M 429.22,312.13 A 147.85,122.14 0 0 1 276.64,343.31 L 322.85,227.28 z"
         />
      <path fill="#00700d"
         d="M 462.08,268.40 A 147.85,122.14 0 0 1 429.50,311.88 L 322.85,227.28 z"
         />
      <path fill="#00afff"
         d="m 470.55,232.89 a 147.85,122.14 0 0 1 -8.31,35.14 L 322.85,227.28 z"
         />
      <path fill="#e8a3cb"
         d="m 276.30,343.21 a 147.85,122.14 0 0 1 -73.27,-187.48 l 119.82,71.55 z"
         />
      <path fill="#81e83f"
         d="m 203.08,155.67 a 147.85,122.14 0 0 1 267.63,72.00 l -147.85,-0.39 z"
         />
      <path fill="#6c2824"
         d="m 470.71,227.67 a 147.85,122.14 0 0 1 -0.13,4.90 l -147.71,-5.28 z"
         />
    </g>
    <g transform="matrix(0.360,0, 0,0.435, 391, 382)" fill="#dd00dd"
         style="stroke:#000;stroke-width:0.48;stroke-miterlimit:4" >
      <path fill="#00008f"
         d="m 466.63,255.76 a 147.85,122.14 0 0 1 -6.23,16.33 L 322.85,227.28z" />
      <path fill="#00700d"
         d="m 431.01,310.56 a 147.85,122.14 0 0 1 -216.35,-0.03 l108.19,-83.24z" />
      <path fill="#00afff"
         d="m 469.34,243.88 a 147.85,122.14 0 0 1 -2.76,12.09 L322.85,227.28z" />
      <path fill="#81e83f"
         d="M 215.21,311.02 A 147.85,122.14 0 1 1 470.71,228.00 l -147.85,-0.71 z"
         />
      <path fill="#ffaf00"
         d="m 470.37236,235.58768 a 147.85715,122.14286 0 0 1 -0.99952,8.11387 L 322.85715,227.28572 z"
         />
      <path fill="#b70095"
         d="m 460.24,272.42 a 147.85,122.14 0 0 1 -29.30,38.20 L 322.85,227.28 z"
         />
      <path fill="#ea000c"
         d="m 470.71,227.29 a 147.85,122.14 0 0 1 -0.34,8.28 l -147.51,-8.29 z"
         />
    </g>

    <text x="325" y="32.5" font-size="26.5px" font-weight="bold" fill="%000"
       stroke="none" font-family="Liberation Sans, Arial" text-anchor="middle" >
       <tspan>Annual Greenhouse Gas Emissions by Sector</tspan></text>

    <g xml:space="preserve"  transform="translate(35,-8)"
       style="font-size:19px;font-style:normal;font-weight:normal;fill:#000;stroke:none;font-family:Liberation Sans, Arial" >
      <g text-anchor="middle">
        <text x="165" y="80">Industrial</text>
        <text x="165" y="99" >processes</text>
      </g>
      <g text-anchor="start">
        <text x="402" y="108">Power stations</text>
        <text x="448" y="204">Waste disposal</text>
        <text x="448" y="223">and treatment</text>
        <text x="440" y="282">Land use and</text>
        <text x="440" y="301">biomass burning</text>
        <text x="400" y="375">Residential, commercial</text>
        <text x="400" y="394">and other sources</text>
      </g>
      <g text-anchor="end">
        <text x="210" y="376">Fossil fuel retrieval,</text>
        <text x="210" y="395" >processing, and distribution</text>
        <text x="92" y="295">Agricultural</text>
        <text x="92" y="314" >byproducts</text>
        <text x="145" y="174">Transportation fuels</text>
      </g>
      <g text-anchor="middle">
        <text x="245" y="85">16.8%</text>
        <text x="435" y="135">21.3%</text>
        <text x="470" y="251">3.4%</text>
        <text x="442" y="325">10.0%</text>
        <text x="362" y="384">10.3%</text>
        <text x="250" y="388">11.3%</text>
        <text x="130" y="306">12.5%</text>
        <text x="115" y="200">14.0%</text>
      </g>
    </g>
    <g
       style="fill:none;stroke:#000;stroke-width:3;stroke-linecap:butt;stroke-linejoin:miter" >
      <path d="m 18,413 h614" />
    </g>
    <g font-size="17px" font-family="Liberation Sans, Arial"
         text-anchor="start" >
       <text x="53.0" y="445">20.6%</text>
       <text x="188" y="443">29.5%</text>
       <text x="200.5" y="500">8.4%</text>
       <text x="181.5" y="536">9.1%</text>
       <text x="127" y="554">12.9%</text>
       <text x="47.5" y="529">19.2%</text>

       <text x="369.5" y="439.5">40.0%</text>
       <text x="383" y="498.5">4.8%</text>
       <text x="373" y="523">6.6%</text>
       <text x="325" y="550.5">18.1%</text>
       <text x="254.5" y="544">29.6%</text>

       <text x="554" y="441">62.0%</text>
       <text x="579" y="484.5">1.1%</text>
       <text x="578" y="499">1.5%</text>
       <text x="572" y="515">2.3%</text>
       <text x="560.5" y="531">5.9%</text>
       <text x="485.5" y="552.5">26.0%</text>
    </g>
  <g font-family="Liberation Sans, Arial" text-anchor="middle">
    <text y="579" style="font-size:17px;font-weight:bold" >
       <tspan x="145" >Carbon Dioxide</tspan>
       <tspan x="327" >Methane</tspan>
       <tspan x="505" >Nitrous Oxide</tspan>
     </text>
     <text y="595" style="font-size:14px;font-weight:normal" >
       <tspan x="145" >(72% of total)</tspan>
       <tspan x="327" >(18% of total)</tspan>
       <tspan x="505" >(9% of total)</tspan>
     </text>
  </g>
</svg>
